<svg width="1024" height="1024" viewBox="0 0 1024 1024" fill="none" xmlns="http://www.w3.org/2000/svg">
  <title>cc-partner app icon</title>
  <defs>
    <linearGradient id="bg" x1="156" y1="116" x2="868" y2="908" gradientUnits="userSpaceOnUse">
      <stop offset="0" stop-color="#faf9f5"/>
      <stop offset="0.58" stop-color="#f1eee4"/>
      <stop offset="1" stop-color="#e4dfd0"/>
    </linearGradient>
    <linearGradient id="accent" x1="508" y1="308" x2="838" y2="736" gradientUnits="userSpaceOnUse">
      <stop offset="0" stop-color="#d97757"/>
      <stop offset="1" stop-color="#b94f34"/>
    </linearGradient>
    <filter id="shadow" x="44" y="52" width="936" height="956" filterUnits="userSpaceOnUse" color-interpolation-filters="sRGB">
      <feDropShadow dx="0" dy="28" stdDeviation="32" flood-color="#141413" flood-opacity="0.20"/>
      <feDropShadow dx="0" dy="5" stdDeviation="10" flood-color="#141413" flood-opacity="0.10"/>
    </filter>
    <filter id="markShadow" x="118" y="192" width="788" height="656" filterUnits="userSpaceOnUse" color-interpolation-filters="sRGB">
      <feDropShadow dx="0" dy="18" stdDeviation="18" flood-color="#141413" flood-opacity="0.18"/>
    </filter>
  </defs>

  <g filter="url(#shadow)">
    <rect x="72" y="72" width="880" height="880" rx="214" fill="url(#bg)"/>
    <rect x="92" y="92" width="840" height="840" rx="194" stroke="#ffffff" stroke-opacity="0.65" stroke-width="28"/>
    <rect x="72" y="72" width="880" height="880" rx="214" stroke="#141413" stroke-opacity="0.10" stroke-width="4"/>
  </g>

  <g filter="url(#markShadow)" stroke-linecap="round" stroke-linejoin="round">
    <path
      d="M500 332C447 286 365 275 297 314C207 365 171 485 218 587C268 694 397 737 499 682"
      stroke="#141413"
      stroke-width="112"
    />
    <path
      d="M524 692C579 738 662 749 731 710C822 658 858 539 811 437C761 330 633 287 531 342"
      stroke="url(#accent)"
      stroke-width="112"
    />
  </g>

  <g stroke-linecap="round" stroke-linejoin="round">
    <path d="M442 512H582" stroke="#141413" stroke-opacity="0.10" stroke-width="64"/>
    <path d="M442 512H582" stroke="#faf9f5" stroke-width="58"/>
    <circle cx="442" cy="512" r="28" fill="#faf9f5"/>
    <circle cx="582" cy="512" r="28" fill="#faf9f5"/>
  </g>
</svg>
